<?xml version="1.0" encoding="UTF-8"?><svg id="Layer_1" xmlns="http://www.w3.org/2000/svg" viewBox="0 0 723.39 75.67"><g id="Layer_1-2"><path d="M648.87,74.01V0h15.3l21.6,56.33h.62L708.1,0h15.3v74.01h-11.16v-41.86l.62-13.13h-.62l-21.61,54.99h-8.99l-21.6-54.99h-.62l.62,13.13v41.86h-11.16Z"/><path d="M597.16,74.01V0h11.37v63.26h31.83v10.75h-43.2Z"/><path d="M543.39,74.01V0h11.16v43.62l22.32-22.32h13.85v.62l-20.36,20.15,21.08,31.32v.62h-13.23l-15.71-24.19-7.96,7.85v16.33h-11.16,0Z"/><path d="M509.21,75.66c-5.45,0-10.23-1.24-14.37-3.72-4.13-2.48-7.37-5.82-9.72-10.02-2.34-4.27-3.52-9.03-3.52-14.26s1.17-9.96,3.52-14.16c2.34-4.27,5.58-7.65,9.72-10.13,4.13-2.48,8.92-3.72,14.37-3.72s10.13,1.28,14.26,3.82c4.13,2.48,7.37,5.82,9.72,10.02s3.52,8.92,3.52,14.16-1.17,9.99-3.52,14.26c-2.34,4.2-5.58,7.55-9.72,10.02-4.13,2.48-8.89,3.72-14.26,3.72ZM509.21,65.43c2.89,0,5.58-.69,8.06-2.07,2.48-1.45,4.48-3.48,5.99-6.1,1.58-2.69,2.38-5.89,2.38-9.61s-.79-6.89-2.38-9.51c-1.52-2.69-3.52-4.72-5.99-6.1-2.48-1.45-5.17-2.17-8.06-2.17s-5.62.72-8.17,2.17c-2.48,1.38-4.52,3.41-6.1,6.1-1.52,2.62-2.28,5.79-2.28,9.51s.76,6.92,2.28,9.61c1.58,2.62,3.65,4.65,6.2,6.1,2.55,1.38,5.24,2.07,8.06,2.07Z"/><path d="M449.74,75.66c-5.45,0-10.23-1.24-14.37-3.72-4.13-2.48-7.37-5.82-9.72-10.02-2.34-4.27-3.52-9.03-3.52-14.26s1.17-9.96,3.52-14.16c2.34-4.27,5.58-7.65,9.72-10.13,4.13-2.48,8.92-3.72,14.37-3.72s10.13,1.28,14.26,3.82c4.13,2.48,7.37,5.82,9.72,10.02s3.52,8.92,3.52,14.16-1.17,9.99-3.52,14.26c-2.34,4.2-5.58,7.55-9.72,10.02-4.13,2.48-8.89,3.72-14.26,3.72ZM449.74,65.43c2.89,0,5.58-.69,8.06-2.07,2.48-1.45,4.48-3.48,5.99-6.1,1.58-2.69,2.38-5.89,2.38-9.61s-.79-6.89-2.38-9.51c-1.52-2.69-3.52-4.72-5.99-6.1-2.48-1.45-5.17-2.17-8.06-2.17s-5.62.72-8.17,2.17c-2.48,1.38-4.52,3.41-6.1,6.1-1.52,2.62-2.28,5.79-2.28,9.51s.76,6.92,2.28,9.61c1.58,2.62,3.65,4.65,6.2,6.1,2.55,1.38,5.24,2.07,8.06,2.07Z"/><path d="M392.45,75.66c-2.69,0-5.13-.42-7.34-1.24s-4.13-1.89-5.79-3.2c-1.58-1.38-2.86-2.79-3.82-4.24h-.62v7.03h-10.54V0h11.16v21.09l-.62,7.34h.62c.96-1.52,2.24-2.93,3.82-4.24,1.65-1.38,3.59-2.48,5.79-3.31,2.21-.83,4.65-1.24,7.34-1.24,4.82,0,9.13,1.21,12.92,3.61,3.79,2.41,6.78,5.72,8.99,9.92,2.28,4.2,3.41,9.03,3.41,14.47s-1.14,10.27-3.41,14.47c-2.21,4.2-5.2,7.51-8.99,9.92-3.79,2.41-8.1,3.61-12.92,3.61h0ZM390.8,65.43c2.75,0,5.34-.72,7.75-2.17,2.48-1.45,4.45-3.52,5.89-6.2,1.51-2.69,2.28-5.82,2.28-9.41s-.76-6.78-2.28-9.41c-1.45-2.69-3.41-4.75-5.89-6.2-2.41-1.45-4.99-2.17-7.75-2.17s-5.34.72-7.75,2.17-4.38,3.52-5.89,6.2c-1.52,2.62-2.28,5.75-2.28,9.41s.76,6.82,2.28,9.51c1.51,2.62,3.48,4.65,5.89,6.1,2.41,1.45,4.99,2.17,7.75,2.17Z"/><path d="M332.06,75.66c-5.17,0-9.78-1.21-13.85-3.61-4.07-2.41-7.27-5.72-9.61-9.92-2.28-4.2-3.41-8.99-3.41-14.37,0-5.03,1.1-9.68,3.31-13.96s5.27-7.69,9.2-10.23c4-2.62,8.58-3.93,13.75-3.93,5.45,0,10.06,1.17,13.85,3.52,3.86,2.34,6.78,5.55,8.78,9.61s3,8.65,3,13.75c0,.76-.03,1.45-.1,2.07,0,.62-.03,1.1-.1,1.45h-40.73c.28,2.89,1,5.41,2.17,7.55,1.51,2.69,3.52,4.72,5.99,6.1,2.48,1.38,5.17,2.07,8.06,2.07,3.52,0,6.44-.79,8.78-2.38,2.41-1.65,4.31-3.68,5.69-6.1l9.2,4.45c-2.28,4.13-5.38,7.51-9.3,10.13-3.93,2.55-8.82,3.82-14.68,3.82h.01ZM316.77,41.66h29.25c-.07-1.31-.42-2.69-1.03-4.13-.62-1.52-1.51-2.89-2.69-4.13s-2.65-2.24-4.45-3c-1.79-.83-3.89-1.24-6.31-1.24-3.03,0-5.72.79-8.06,2.38-2.34,1.52-4.17,3.65-5.48,6.41-.55,1.17-.96,2.41-1.24,3.72h0Z"/><path d="M269.11,21.3h9.2V6.41h11.16v14.89h12.92v9.72h-12.92v25.32c0,2.62.52,4.61,1.55,5.99,1.1,1.38,2.93,2.07,5.48,2.07,1.24,0,2.34-.17,3.31-.51.96-.42,1.93-.9,2.89-1.45v10.86c-1.17.48-2.41.86-3.72,1.14-1.31.28-2.86.42-4.65.42-4.89,0-8.79-1.41-11.68-4.24-2.89-2.89-4.34-6.85-4.34-11.88v-27.7h-9.2v-9.72h0Z"/><path d="M239.56,75.66c-5.45,0-10.23-1.24-14.37-3.72s-7.37-5.82-9.72-10.02c-2.34-4.27-3.52-9.03-3.52-14.26s1.17-9.96,3.52-14.16c2.34-4.27,5.58-7.65,9.72-10.13,4.13-2.48,8.92-3.72,14.37-3.72s10.13,1.28,14.26,3.82c4.13,2.48,7.37,5.82,9.72,10.02s3.52,8.92,3.52,14.16-1.17,9.99-3.52,14.26c-2.34,4.2-5.58,7.55-9.72,10.02-4.13,2.48-8.89,3.72-14.26,3.72ZM239.56,65.43c2.89,0,5.58-.69,8.06-2.07,2.48-1.45,4.48-3.48,5.99-6.1,1.58-2.69,2.38-5.89,2.38-9.61s-.79-6.89-2.38-9.51c-1.51-2.69-3.52-4.72-5.99-6.1-2.48-1.45-5.17-2.17-8.06-2.17s-5.62.72-8.17,2.17c-2.48,1.38-4.52,3.41-6.1,6.1-1.51,2.62-2.28,5.79-2.28,9.51s.76,6.92,2.28,9.61c1.58,2.62,3.65,4.65,6.2,6.1,2.55,1.38,5.24,2.07,8.06,2.07h0Z"/><path d="M145.83,74.01V0h13.44l33.49,54.37h.62l-.62-14.26V0h11.27v74.01h-11.79l-35.14-57.16h-.62l.62,14.26v42.9h-11.27Z"/><path d="M50.39.1C22.56.1,0,22.47,0,50.08v23.93h9.29v-2.38c0-11.2,9.15-20.27,20.44-20.27s20.44,9.08,20.44,20.27v2.38h9.29v-2.38c0-16.28-13.31-29.48-29.73-29.48-6.39,0-12.31,2-17.16,5.41,5.08-10,15.52-16.87,27.58-16.87,17.04,0,30.86,13.71,30.86,30.6v12.72h9.29v-12.72c0-21.99-17.98-39.82-40.15-39.82-9.97,0-19.09,3.6-26.11,9.57,6.89-12.93,20.59-21.73,36.36-21.73,22.71,0,41.11,18.25,41.11,40.77v23.93h9.29v-23.93C100.79,22.47,78.23.1,50.39.1Z"/></g></svg>