<svg xmlns="http://www.w3.org/2000/svg" viewBox="0 0 97.74 78.63"><title>Google Cloud logo - Brandlogos.net</title><path d="M525.33,494.42l3.13.06L537,486l.42-3.6a38.2,38.2,0,0,0-62.3,18.57c.88-.64,2.88-.16,2.88-.16l17-2.8s.88-1.44,1.31-1.35a21.19,21.19,0,0,1,29-2.21Z" transform="translate(-463.13 -472.68)" style="fill:#ea4335"/><path d="M548.91,501a38.32,38.32,0,0,0-11.54-18.6l-12,12a21.2,21.2,0,0,1,7.92,16.53v2.19a10.63,10.63,0,1,1,.65,21.25H512l-2.12,2.14V549.2l2.12,2.12h21.25A27.61,27.61,0,0,0,548.91,501Z" transform="translate(-463.13 -472.68)" style="fill:#4285f4"/><path d="M490.74,551.32H512v-17H490.74a10.54,10.54,0,0,1-4.38-1l-3.06.94-8.51,8.55-.74,2.88A27.47,27.47,0,0,0,490.74,551.32Z" transform="translate(-463.13 -472.68)" style="fill:#34a853"/><path d="M490.74,496.08a27.61,27.61,0,0,0-16.68,49.61l12.32-12.32a10.62,10.62,0,1,1,14-14L512.74,507A27.6,27.6,0,0,0,490.74,496.08Z" transform="translate(-463.13 -472.68)" style="fill:#fbbc04"/></svg>