<?xml version="1.0" standalone="no"?>
<!DOCTYPE svg PUBLIC "-//W3C//DTD SVG 20010904//EN"
 "http://www.w3.org/TR/2001/REC-SVG-20010904/DTD/svg10.dtd">
<svg version="1.0" xmlns="http://www.w3.org/2000/svg"
 width="600.000000pt" height="600.000000pt" viewBox="0 0 600.000000 600.000000"
 preserveAspectRatio="xMidYMid meet">

<g transform="translate(0.000000,600.000000) scale(0.100000,-0.100000)"
fill="#000000" stroke="none">
<path d="M2820 5159 c-197 -21 -397 -65 -558 -125 -616 -229 -1072 -708 -1282
-1347 -12 -38 -20 -70 -19 -72 2 -1 44 22 94 51 157 94 323 155 520 189 119
22 353 24 468 6 l78 -13 77 74 c355 338 898 415 1337 190 400 -206 635 -597
635 -1058 l0 -111 63 -6 c170 -17 329 -116 427 -269 223 -344 32 -809 -368
-894 -54 -11 -191 -14 -684 -14 l-618 0 0 -466 0 -465 648 4 c440 3 674 8 732
17 913 133 1493 990 1270 1877 -80 317 -283 626 -537 818 l-80 60 -41 124
c-109 320 -274 584 -522 831 -134 134 -260 234 -404 320 -353 211 -834 320
-1236 279z"/>
</g>
</svg>
