<?xml version="1.0" standalone="no"?>
<!DOCTYPE svg PUBLIC "-//W3C//DTD SVG 20010904//EN"
 "http://www.w3.org/TR/2001/REC-SVG-20010904/DTD/svg10.dtd">
<svg version="1.0" xmlns="http://www.w3.org/2000/svg"
 width="565.000000pt" height="528.000000pt" viewBox="0 0 565.000000 528.000000"
 preserveAspectRatio="xMidYMid meet">

<g transform="translate(0.000000,528.000000) scale(0.100000,-0.100000)"
fill="#000000" stroke="none">
<path d="M3080 4731 c-109 -22 -211 -127 -293 -301 -19 -41 -38 -86 -42 -99
-7 -23 -8 -24 -21 -7 -12 17 -14 17 -29 2 -20 -20 -35 -21 -35 -1 0 23 -67 20
-74 -3 -6 -17 -33 -18 -476 -16 -258 0 -467 -3 -464 -7 2 -4 -99 -7 -226 -6
-173 1 -230 -1 -230 -10 0 -6 -10 -19 -22 -27 -20 -14 -23 -14 -31 -1 -4 8 -6
19 -2 24 3 5 -2 17 -11 26 -15 15 -15 17 1 35 9 10 15 24 13 31 -4 12 -44 -49
-80 -121 -10 -19 -22 -42 -27 -50 -6 -8 -26 -51 -46 -95 -20 -44 -43 -91 -50
-105 -7 -14 -17 -43 -21 -65 -6 -36 -6 -39 9 -26 18 14 22 5 8 -18 -5 -7 -13
-11 -19 -7 -19 11 -25 -15 -8 -32 16 -16 17 -16 11 3 -6 18 -6 19 7 3 9 -10
30 -17 54 -18 64 -1 166 19 186 37 10 9 18 12 18 6 0 -13 69 -11 74 2 2 6 35
10 75 9 39 0 71 3 71 8 0 4 9 8 19 8 11 0 26 7 35 15 10 11 17 12 22 4 4 -7
27 -10 61 -7 29 3 56 1 59 -4 3 -4 15 -2 27 6 15 9 48 12 102 10 44 -2 153 -1
243 2 137 6 161 9 151 20 -10 12 -3 14 42 12 39 -2 53 0 52 10 -2 6 7 13 20
13 28 2 28 2 52 -6 17 -6 17 -5 5 5 -16 12 -14 12 93 -6 24 -5 37 -3 37 5 0 6
14 11 30 11 17 0 30 -4 30 -9 0 -4 23 -6 50 -3 41 4 50 2 50 -12 0 -9 -1 -17
-2 -19 -2 -2 5 -11 15 -21 9 -10 17 -23 17 -29 0 -11 -88 -314 -104 -362 -4
-12 5 -5 21 15 99 123 176 177 286 200 35 7 244 9 630 8 317 -2 577 -2 577 0
0 1 -29 16 -64 32 -59 28 -145 103 -170 147 -5 10 -12 20 -15 23 -17 14 -41
82 -111 315 -61 200 -94 267 -166 335 -104 98 -263 141 -414 111z m-1470 -461
c0 -5 -2 -10 -4 -10 -3 0 -8 5 -11 10 -3 6 -1 10 4 10 6 0 11 -4 11 -10z
m-527 -33 c3 -8 -1 -14 -8 -14 -7 0 -11 6 -8 14 3 7 6 13 8 13 2 0 5 -6 8 -13z
m1537 -237 c0 -5 -5 -10 -11 -10 -5 0 -7 5 -4 10 3 6 8 10 11 10 2 0 4 -4 4
-10z m-540 -40 c0 -5 -8 -10 -17 -10 -15 0 -16 2 -3 10 19 12 20 12 20 0z
m-947 -87 c-7 -2 -19 -2 -25 0 -7 3 -2 5 12 5 14 0 19 -2 13 -5z"/>
<path d="M2720 4376 c0 -8 5 -18 10 -21 6 -3 10 3 10 14 0 12 -4 21 -10 21 -5
0 -10 -6 -10 -14z"/>
<path d="M2438 3983 c6 -2 18 -2 25 0 6 3 1 5 -13 5 -14 0 -19 -2 -12 -5z"/>
<path d="M870 3820 c0 -5 7 -10 15 -10 8 0 15 5 15 10 0 6 -7 10 -15 10 -8 0
-15 -4 -15 -10z"/>
<path d="M825 3690 c-4 -12 -5 -24 -2 -27 3 -2 8 5 12 17 4 12 5 24 2 27 -3 2
-8 -5 -12 -17z"/>
<path d="M3275 3650 c-3 -6 1 -7 9 -4 18 7 21 14 7 14 -6 0 -13 -4 -16 -10z"/>
<path d="M4564 3642 c11 -12 15 -22 10 -22 -89 3 -1037 -12 -1056 -16 -16 -3
-28 -10 -28 -15 0 -5 -5 -9 -11 -9 -5 0 -8 4 -5 8 10 16 -167 13 -198 -3 -32
-17 -53 -11 -35 11 7 8 7 14 1 14 -12 0 -64 -80 -85 -130 -7 -19 -26 -80 -42
-135 -15 -55 -34 -119 -41 -143 -8 -23 -14 -49 -14 -56 0 -7 -12 -49 -26 -92
-15 -46 -23 -88 -19 -104 3 -15 2 -20 -3 -12 -6 8 -14 -8 -26 -50 -10 -35 -26
-90 -36 -123 -41 -135 -42 -144 -25 -167 8 -13 15 -17 15 -11 0 7 -5 15 -11
19 -12 7 -4 51 14 73 7 8 12 21 13 30 1 9 2 26 3 39 0 12 5 22 9 22 12 0 5
-70 -9 -86 -16 -19 -1 -38 18 -22 13 10 18 9 32 -9 13 -15 22 -18 34 -11 11 6
17 5 17 -2 0 -5 5 -10 11 -10 5 0 7 6 3 13 -6 10 -4 10 7 0 7 -7 21 -13 31
-13 10 0 18 -7 18 -15 0 -8 8 -15 18 -15 13 0 14 -2 4 -9 -10 -6 -10 -10 3
-21 8 -7 15 -9 15 -6 0 4 7 1 15 -8 8 -8 15 -19 15 -25 0 -11 72 -36 118 -40
6 0 12 -8 12 -16 0 -8 3 -14 8 -13 4 2 8 -1 9 -7 3 -16 36 -24 76 -18 35 5 37
4 37 -21 0 -20 5 -26 21 -26 16 0 19 4 14 20 -5 15 -2 20 10 20 10 0 15 -5 12
-14 -6 -15 34 -49 71 -60 12 -4 20 -11 17 -16 -8 -13 22 -20 80 -20 30 0 57
-5 60 -11 4 -6 13 -8 20 -5 7 2 17 -6 24 -20 7 -16 19 -24 35 -24 13 0 29 -6
35 -14 7 -8 22 -12 34 -10 67 15 90 17 84 6 -4 -5 -16 -8 -28 -5 -17 5 -20 2
-17 -13 3 -18 16 -19 183 -22 99 -1 187 -5 195 -9 14 -6 38 -11 68 -15 6 -1
12 -5 12 -9 0 -5 7 -6 15 -3 8 4 15 1 15 -6 0 -7 8 -9 20 -5 16 5 20 2 20 -16
0 -41 16 -7 55 116 20 66 43 138 50 160 134 420 189 800 142 994 -22 91 -68
175 -121 221 -23 19 -32 25 -22 12z m26 -1092 c0 -5 -5 -10 -11 -10 -5 0 -7 5
-4 10 3 6 8 10 11 10 2 0 4 -4 4 -10z m-1333 -6 c-3 -3 -12 -4 -19 -1 -8 3 -5
6 6 6 11 1 17 -2 13 -5z m1273 -194 c0 -5 -4 -10 -10 -10 -5 0 -10 5 -10 10 0
6 5 10 10 10 6 0 10 -4 10 -10z m-54 -177 c-10 -10 -19 5 -10 18 6 11 8 11 12
0 2 -7 1 -15 -2 -18z"/>
<path d="M2771 2266 c-31 -49 -121 -129 -178 -157 -45 -22 -62 -24 -278 -29
-209 -5 -234 -8 -271 -27 -51 -27 -95 -90 -105 -151 -4 -26 -8 -174 -8 -329
l-1 -282 -28 1 c-15 1 -37 -4 -49 -10 -17 -10 -22 -8 -31 13 -7 14 -16 25 -22
25 -19 0 10 -41 75 -105 l63 -61 3 -85 c3 -73 8 -92 32 -127 15 -23 46 -54 69
-69 l42 -28 1235 -3 c1366 -3 1282 -7 1351 61 61 59 60 52 60 557 0 433 -1
463 -19 498 -34 67 -90 104 -176 117 -27 4 -444 7 -927 6 l-876 -2 34 107 c19
59 32 109 30 111 -2 2 -13 -12 -25 -31z m-409 -595 c46 -94 86 -170 90 -170 5
-1 45 74 91 167 l83 167 79 0 80 0 3 -372 2 -373 -75 0 -75 0 -1 263 0 262
-72 -142 -72 -143 -47 0 -48 0 -72 143 -73 142 -3 -262 -2 -263 -70 0 -70 0 0
368 c0 203 3 372 7 375 3 4 42 7 85 7 l78 0 82 -169z m910 133 c78 -39 108
-87 108 -172 0 -65 -27 -119 -68 -137 -30 -13 -28 -28 8 -43 51 -23 74 -67 78
-147 7 -156 -87 -233 -273 -223 -122 7 -200 57 -225 146 -21 78 -19 82 60 82
69 0 70 -1 70 -26 0 -37 50 -84 92 -85 63 -2 83 3 106 25 44 43 38 141 -12
169 -11 6 -43 14 -71 17 l-50 5 0 55 0 55 51 5 c60 6 79 19 94 66 22 64 -18
114 -90 114 -47 0 -79 -20 -97 -62 l-17 -38 -63 0 c-61 0 -63 1 -63 25 0 82
71 161 165 186 45 12 159 2 197 -17z m543 15 c74 -20 137 -86 151 -158 l7 -31
-72 0 c-57 0 -71 3 -71 15 0 9 -11 27 -25 40 -74 75 -185 -19 -185 -158 l0
-37 41 27 c36 23 52 27 113 27 57 0 79 -4 109 -23 84 -52 121 -151 97 -264
-10 -48 -20 -68 -58 -107 -56 -57 -105 -74 -203 -68 -174 10 -259 151 -247
409 6 123 31 197 86 259 59 66 164 94 257 69z m690 -59 l0 -55 -137 -3 -137
-3 -5 -27 c-8 -42 -10 -127 -3 -129 4 -1 22 4 41 12 56 24 125 19 187 -12 44
-23 58 -37 81 -82 24 -45 28 -66 28 -130 0 -92 -20 -141 -78 -193 -48 -43 -94
-58 -179 -58 -80 0 -163 31 -199 72 -29 36 -40 59 -50 112 l-6 37 73 -3 c67
-3 74 -5 77 -25 5 -32 48 -70 87 -77 54 -10 99 14 118 63 56 138 -54 253 -167
176 -28 -19 -50 -25 -91 -25 -30 0 -56 4 -60 10 -6 10 23 378 31 392 3 4 92 7
197 6 l192 -3 0 -55z"/>
<path d="M3670 1412 c-47 -26 -54 -41 -46 -96 11 -69 57 -118 114 -120 62 -1
94 34 100 112 4 52 1 61 -23 90 -22 27 -34 32 -69 32 -23 0 -57 -8 -76 -18z"/>
<path d="M3750 2280 c0 -5 7 -10 15 -10 8 0 15 5 15 10 0 6 -7 10 -15 10 -8 0
-15 -4 -15 -10z"/>
<path d="M1770 1350 c0 -5 5 -10 11 -10 5 0 7 5 4 10 -3 6 -8 10 -11 10 -2 0
-4 -4 -4 -10z"/>
</g>
</svg>
